<?xml version="1.0" encoding="utf-8"?>
<!-- Generator: Adobe Illustrator 23.0.1, SVG Export Plug-In . SVG Version: 6.00 Build 0)  -->
<svg version="1.1" id="Layer_1" xmlns="http://www.w3.org/2000/svg" xmlns:xlink="http://www.w3.org/1999/xlink" x="0px" y="0px"
	 viewBox="0 0 100 100" style="enable-background:new 0 0 100 100;" xml:space="preserve">
<style type="text/css">
	.st0{fill:#F0BC5E;}
</style>
<g id="XMLID_946_">
	<path id="XMLID_2479_" d="M88.8,83.9c-0.3-0.1-0.6-0.1-1-0.1h-0.4c-1.3,0-2.5,0-3.7,0c-0.6,0-0.9-0.2-1.2-0.7
		c-0.4-0.6-0.7-1.3-1.1-2c-0.5-0.9-1-1.8-1.5-2.7c-0.3-0.5-0.4-1.2-0.5-1.7c0-2,0-4,0-6c0-3.3,0-6.7-0.1-10
		c-0.1-4.1-3.7-7.7-7.9-7.8c-2.2-0.1-4.5-0.1-6.7-0.1c-1,0-2,0-3,0h-1.2V38.3h6.6c4.7,0,9.3,0,14,0c1.9,0,3.4-0.4,4.6-1.2
		c2.4-1.6,3.7-3.8,3.8-6.6c0-0.8-0.4-1.2-1.2-1.4c-0.3,0-0.5,0-0.8,0H58.8c0,0,0,0,0,0c-1,1.2-2.3,2.2-3.8,2.7
		c0.1,0,0.3,0.1,0.4,0.1c1.6,0.6,2.5,2,2.5,4.2c0,3.7,0,7.3,0,11v5.5H45.7l0-0.5c0-0.2,0-0.4,0-0.6V37.8c0-1.6-0.4-2-2-2h-5.9
		c-5.1,0-10.1,0-15.2,0c0,0,0,0,0,0c-2.3,0-4-0.9-5.1-2.7c-0.1-0.2-0.2-0.3-0.3-0.6c0-0.1-0.1-0.2-0.2-0.4l-0.2-0.4h31.5
		c-1.3-0.5-2.4-1.4-3.3-2.4c0,0-0.1-0.1-0.1-0.1H16.3c-0.3,0-0.5,0-0.8,0c-0.8,0.1-1.2,0.6-1.2,1.4c0,1.7,0.6,3.2,1.6,4.6
		c1.6,2.1,3.8,3.2,6.7,3.2h0c4.5,0,9,0,13.5,0H43l0.1,0.4c0,0.1,0,0.2,0,0.3v2.1c0,3.9,0,7.9,0,11.9c0,0.4-0.4,0.9-0.7,1.1
		c-1.9,1.3-3.9,2.5-5.8,3.8l-2.3,1.5c-0.3,0.2-0.5,0.3-0.7,0.5c-0.4,0.4-0.5,1.1-0.2,1.6c0.3,0.5,1,0.7,1.5,0.5
		c0.3-0.1,0.5-0.3,0.8-0.4l2.6-1.6c2.1-1.4,4.2-2.7,6.3-4.1c0.4-0.3,1-0.4,1.5-0.5c8.4,0,17.1,0,24.5,0c0.6,0,1.2,0,1.9,0.2
		c2.9,0.7,4.5,3,4.5,6.1v3.4c0,3.9,0,7.8,0,11.8c0,1.1,0.2,2,0.8,2.9c0.5,0.8,0.9,1.6,1.4,2.5c0.2,0.4,0.4,0.8,0.7,1.2l0.2,0.4h-5.2
		c-1.9,0-2.6-0.7-2.6-2.6l0-16.2c0-1.6-0.3-2-2-2h-3.3c-5.1,0-10.2,0-15.4,0c-0.6,0-1.3,0.2-1.8,0.4c-12,5.7-21.9,10.4-31.1,14.9
		c-1,0.5-1.9,1.1-2.8,1.7l-0.6,0.4c-0.5,0.3-0.9,0.7-1.3,1c-0.2,0.2-0.4,0.4-0.7,0.5l-0.4,0.3l0-0.5c-0.1-1.8,0.2-3.2,0.9-4.6
		c0.7-1.5,1.8-2.6,3.3-3.6c2.3-1.5,4.6-3,6.9-4.4c0.7-0.5,1-1,0.9-1.6c-0.1-0.4-0.4-0.7-0.7-0.9c-0.4-0.2-0.9-0.1-1.4,0.2l-0.9,0.5
		c-2.1,1.3-4.3,2.7-6.4,4.2c-0.8,0.5-1.5,1.2-2.5,2.2c-1.3,1.3-1.9,3-2.5,5v7c0.4,0.4,1,0.6,1.8,0.6c16.8,0,33.6,0,50.4,0h25.2
		c0.4,0,0.8,0,1.2-0.1c0.5-0.1,0.9-0.6,0.9-1.2C89.7,84.6,89.3,84,88.8,83.9z M59.9,33c-0.1-0.3-0.2-0.5-0.3-0.8l-0.1-0.4h27.2
		l-0.1,0.3c-0.3,1.8-2.3,3.5-4.3,3.6c-2.1,0.1-4.3,0.1-6.4,0.1h-6.4c-2.6,0-5.3,0-7.9,0c0,0,0,0,0,0c-0.8,0-1.1-0.3-1.2-1.1
		C60.3,34.1,60.1,33.6,59.9,33z M69.6,83.8H15l0.7-0.5c0.3-0.3,0.6-0.5,0.9-0.7c0.6-0.5,1.2-1,1.9-1.3c9.4-4.5,19-9.1,28.3-13.6
		l3.8-1.8c0.3-0.2,0.7-0.3,1-0.3c5.1,0,10.2,0,15.3,0l1.9,0c0.1,0,0.2,0,0.3,0l0.5,0.1V83.8z"/>
	<path id="XMLID_1063_" d="M29,65.5C29,65.5,29.1,65.5,29,65.5c0.7,0,1.3-0.6,1.3-1.2c0-0.6-0.6-1.3-1.2-1.3c0,0,0,0,0,0
		c-0.3,0-0.6,0.1-0.8,0.4c-0.3,0.2-0.4,0.6-0.4,0.9C27.8,64.9,28.4,65.5,29,65.5z"/>
	<path id="XMLID_2349_" d="M55.3,14.3L55.3,14.3c-1.7-0.8-3.7-0.9-5.4-0.5l-0.1,0c-0.7,0.2-1.5,0.5-2.1,0.9
		c-0.6,0.4-1.1,0.8-1.6,1.3c-0.7,0.6-1.2,1.4-1.6,2.2l0,0.1v0c-0.5,1.1-0.8,2.3-0.8,3.5v2.7c0,1.7,0.5,3.4,1.5,4.8
		c0.1,0.1,0.2,0.2,0.3,0.3c0.7,0.9,1.5,1.6,2.4,2.1c0.8,0.5,1.6,0.8,2.5,0.9c1,0.2,2.1,0.2,3.1,0c0.7-0.1,1.3-0.3,1.9-0.6
		c1.2-0.5,2.2-1.4,3-2.4c0.1-0.1,0.2-0.3,0.3-0.4c0,0,0,0,0,0c0.9-1.4,1.4-3,1.4-4.6v-2.7C60.2,18.6,58.3,15.6,55.3,14.3z M53,30
		c-0.4,0.1-0.7,0.1-1.1,0.1c-0.4,0-0.7,0-1.1-0.1c-1.3-0.3-2.5-1.1-3.3-2.2c-0.8-1.1-1.2-2.4-1.2-3.7v-1.8c0-0.9,0.2-1.7,0.5-2.5v0
		l0.1-0.1c0.3-0.6,0.6-1.1,1.1-1.6c0.3-0.4,0.7-0.7,1.1-0.9c0.4-0.3,0.9-0.5,1.4-0.6l0,0c1.2-0.3,2.5-0.2,3.6,0.3l0.1,0
		c2,1,3.3,3.1,3.3,5.5v1.8c0,1.4-0.4,2.6-1.2,3.7C55.5,29,54.3,29.7,53,30z"/>
	<path id="XMLID_1486_" class="st0" d="M58,36.2c0,3.7,0,7.3,0,11v5.5H45.7l0-0.5c0-0.2,0-0.4,0-0.6V37.8c0-1.6-0.4-2-2-2h-5.9
		c-5.1,0-10.1,0-15.2,0c0,0,0,0,0,0c-2.3,0-4-0.9-5.1-2.7c-0.1-0.2-0.2-0.3-0.3-0.6c0-0.1-0.1-0.2-0.2-0.4l-0.2-0.4h30.9
		c0.8,0.5,1.6,0.8,2.5,0.9c1,0.2,2.1,0.2,3.1,0c0.7-0.1,1.3-0.3,1.9-0.6C57.1,32.6,58,34.1,58,36.2z"/>
</g>
</svg>
