<?xml version="1.0" encoding="utf-8"?>
<!-- Generator: Adobe Illustrator 23.0.1, SVG Export Plug-In . SVG Version: 6.00 Build 0)  -->
<svg version="1.1" id="Layer_1" xmlns="http://www.w3.org/2000/svg" xmlns:xlink="http://www.w3.org/1999/xlink" x="0px" y="0px"
	 viewBox="0 0 100 100" style="enable-background:new 0 0 100 100;" xml:space="preserve">
<style type="text/css">
	.st0{fill:#F0BC5E;}
</style>
<g id="XMLID_109_">
	<path id="XMLID_1033_" class="st0" d="M70.8,55.8c0,11.5-9.3,20.8-20.8,20.8s-20.8-9.3-20.8-20.8S38.5,35,50,35
		S70.8,44.3,70.8,55.8z"/>
	<path id="XMLID_2484_" d="M88.6,55.8l-7-7.8l0,0c-3.2-3.6-7-6.6-11.3-8.9l-1.2-0.7l5.4-5.4c0.5-0.5,0.5-1.3,0-1.8l0,0
		c-0.5-0.5-1.3-0.5-1.8,0l-6.1,6.1l-0.6-0.3c-1.6-0.6-3.3-1.2-5-1.7L60,35l3.5-8.5c0.3-0.7,0-1.4-0.7-1.7l0,0
		c-0.7-0.3-1.4,0-1.7,0.7l-3.7,9l-0.8-0.1c-1.4-0.2-2.9-0.4-4.4-0.5l-1-0.1V23.5c0-0.7-0.6-1.3-1.3-1.3l0,0c-0.7,0-1.3,0.6-1.3,1.3
		v10.3l-1,0.1c-1.5,0.1-3,0.2-4.4,0.5l-0.8,0.1l-3.7-9c-0.3-0.7-1-1-1.7-0.7l0,0c-0.7,0.3-1,1-0.7,1.7L40,35l-1.1,0.3
		c-1.7,0.5-3.4,1-5,1.7l-0.6,0.3l-6.1-6.1c-0.5-0.5-1.3-0.5-1.8,0l0,0c-0.5,0.5-0.5,1.3,0,1.8l5.4,5.4L29.6,39
		c-1.7,0.9-3.4,2-4.9,3.2l-0.2,0.2c-0.6,0.4-2.7,2.2-6.2,5.6l-6.9,7.8l7,7.8c4.9,5.5,11.2,9.6,18.2,12l0.6,0.2
		c0.8,0.3,1.8,0.5,2.9,0.8l1.7,0.4l0.1,0c2.7,0.5,5.5,0.8,8.2,0.8c12.1,0,23.6-5.2,31.7-14.2L88.6,55.8z M79.8,61.9
		c-4.5,5-10.1,8.8-16.5,11.1c-4.3,1.5-8.8,2.3-13.3,2.3s-9-0.8-13.3-2.3c-6.3-2.2-12-6.1-16.5-11.1l-5.4-6.1l5.4-6.1
		c4.4-5,10.1-8.8,16.5-11.1l0.2-0.1c8.5-3,17.8-3,26.3,0h0l0.2,0.1c6.3,2.2,12,6.1,16.5,11.1l5.4,6.1L79.8,61.9z"/>
	<path id="XMLID_2248_" d="M50,44.5c-1.9,0-3.8,0.5-5.4,1.4l1.3,1.9c1.3-0.7,2.7-1,4.2-1c5,0,9,4,9,9c0,1.5-0.4,2.9-1,4.2l1.9,1.3
		c0.9-1.7,1.4-3.5,1.4-5.4C61.3,49.6,56.2,44.5,50,44.5z"/>
	<path id="XMLID_1034_" d="M50,67c1.9,0,3.8-0.5,5.4-1.4l-1.3-1.9c-1.3,0.7-2.7,1-4.2,1c-5,0-9-4-9-9c0-1.5,0.4-2.9,1-4.2l-1.9-1.3
		c-0.9,1.7-1.4,3.5-1.4,5.4C38.8,62,43.8,67,50,67z"/>
</g>
</svg>
