<?xml version="1.0" encoding="utf-8"?>
<!-- Generator: Adobe Illustrator 23.0.1, SVG Export Plug-In . SVG Version: 6.00 Build 0)  -->
<svg version="1.1" id="Layer_1" xmlns="http://www.w3.org/2000/svg" xmlns:xlink="http://www.w3.org/1999/xlink" x="0px" y="0px"
	 viewBox="0 0 100 100" style="enable-background:new 0 0 100 100;" xml:space="preserve">
<style type="text/css">
	.st0{fill:#232323;}
	.st1{fill:#FFFFFF;}
	.st2{fill:#F9BA48;}
</style>
<g>
	<g>
		<path class="st0" d="M85,23.7L76.3,15l-3.8,2.2l-1.9-1.9L68.8,17l1.5,1.5l-4.3,4.3l-1.5-1.5L62.8,23l1.5,1.5l-0.4,0.4l-0.5,4l-8,8
			l-0.6-0.4c-6.9-4.5-11.5-2.3-14.2,0.4c-1.4,1.4-3.4,4-4.7,6.5c-0.6,1.2-1.9,1.8-3.3,1.8c-0.2,0-0.4,0-0.7,0
			c-4.9,0-9.4,1.8-12.7,5.1c-3.6,3.6-4.9,8.1-3.9,13.1c0.9,4.4,3.7,9.1,8,13.3c4.3,4.3,8.9,7,13.3,8c5,1,9.5-0.3,13.1-3.9
			c3.4-3.4,5.2-8.2,5.1-13.4c-0.1-1.4,0.6-2.7,1.8-3.3c2.5-1.3,5.1-3.4,6.5-4.7c2.7-2.7,4.9-7.3,0.4-14.2l-0.4-0.6l8-8l4-0.5
			l0.4-0.4l1.5,1.5l1.8-1.8l-1.5-1.5l4.2-4.2l1.5,1.5l1.8-1.8l-1.9-1.9L85,23.7z M63.5,51.9c0.2,2.2-0.5,4.1-2.2,5.8
			c-1.2,1.2-3.7,3.1-5.9,4.3c-2,1.1-3.2,3.2-3.1,5.5C52.5,72,50.9,76.1,48,79c-2.3,2.3-5,3.5-8.1,3.5c-0.9,0-1.8-0.1-2.7-0.3
			c-3.9-0.8-8.2-3.4-12.1-7.3c-3.9-3.9-6.5-8.2-7.3-12.1C16.9,58.7,18,55,21,52c2.9-2.9,7.1-4.5,11.5-4.4c2.4,0.1,4.5-1.1,5.5-3.1
			c1.1-2.1,3.1-4.7,4.3-5.9c1.7-1.7,3.6-2.4,5.7-2.2c1.4,0.2,2.9,0.7,4.5,1.6l1,0.6l-10,10l-0.3,0c-1.5,0.2-2.8,0.9-3.8,1.9
			c-1.3,1.3-2,3.1-2,4.9c0,1.9,0.7,3.6,2,4.9c1.3,1.3,3,2,4.9,2s3.6-0.7,4.9-2c1-1,1.7-2.4,1.9-3.8l0-0.3l10-10l0.6,1
			C62.8,49,63.4,50.5,63.5,51.9z M48.2,58.1l-0.6,0.6c-0.9,0.9-2,1.3-3.2,1.3c-1.1,0-2.3-0.4-3.1-1.3c-0.8-0.8-1.3-2-1.3-3.1
			c0-1.2,0.5-2.3,1.3-3.1l0.1,0l0.6-0.6l0.6,0.6L48.2,58.1z M48.9,55.3l-4.2-4.2l19.9-19.9l4.2,4.2L48.9,55.3z M79.9,27.8l-6,6
			L71,34.1L65.9,29l0.4-2.9l6.1-6.1l3.4-1.9l6.1,6.1L79.9,27.8z"/>
		<path class="st1" d="M63.5,51.9c-0.1-1.4-0.7-3-1.7-4.6l-0.6-1l-10,10l0,0.3c-0.2,1.4-0.9,2.8-1.9,3.8c-1.3,1.3-3.1,2-4.9,2
			s-3.6-0.7-4.9-2c-1.3-1.3-2-3-2-4.9c0-1.8,0.7-3.6,2-4.9c1-1,2.4-1.7,3.8-1.9l0.3,0l10-10l-1-0.6c-1.6-0.9-3.1-1.5-4.5-1.6
			c-2.1-0.2-4.1,0.5-5.7,2.2c-1.2,1.2-3.1,3.8-4.3,5.9c-1,2-3.2,3.2-5.5,3.1C28,47.5,23.9,49.1,21,52c-3,3-4.1,6.6-3.2,10.9
			c0.8,3.9,3.4,8.2,7.3,12.1c3.9,3.9,8.2,6.5,12.1,7.3c0.9,0.2,1.8,0.3,2.7,0.3c3.1,0,5.8-1.2,8.1-3.5c3-2.9,4.5-7,4.3-11.5
			c-0.1-2.4,1.1-4.5,3.1-5.5c2.2-1.1,4.7-3.1,5.9-4.3C63,56,63.8,54.1,63.5,51.9z M36.4,72L28,63.6l1.7-1.7l8.4,8.4L36.4,72z"/>
		<path class="st1" d="M48.2,58.1l-0.6,0.6c-0.9,0.9-2,1.3-3.2,1.3c-1.1,0-2.3-0.4-3.1-1.3c-0.8-0.8-1.3-2-1.3-3.1
			c0-1.2,0.5-2.3,1.3-3.1l0.1,0l0.6-0.6l0.6,0.6L48.2,58.1z"/>
		<polygon class="st2" points="68.8,35.4 48.9,55.3 44.7,51.1 64.6,31.2 		"/>
		<polygon class="st1" points="81.9,24.1 79.9,27.8 73.9,33.7 71,34.1 65.9,29 66.3,26.1 72.4,20 75.8,18.1 		"/>
		<polygon class="st0" points="38.1,70.3 36.4,72 28,63.6 29.7,61.8 		"/>
	</g>
</g>
</svg>
