<?xml version="1.0" encoding="utf-8"?>
<!-- Generator: Adobe Illustrator 23.0.1, SVG Export Plug-In . SVG Version: 6.00 Build 0)  -->
<svg version="1.1" id="Layer_1" xmlns="http://www.w3.org/2000/svg" xmlns:xlink="http://www.w3.org/1999/xlink" x="0px" y="0px"
	 viewBox="0 0 100 100" style="enable-background:new 0 0 100 100;" xml:space="preserve">
<style type="text/css">
	.st0{fill:#232323;}
	.st1{fill:#FFFFFF;}
	.st2{fill:#F9BA48;}
	.st3{fill:none;}
</style>
<g>
	<g>
		<g>
			<path class="st0" d="M88.8,58.2c-2.2-4.6-7.5-7.4-12.5-6.6c-1.5,0.3-1.5,0.3-2.3-1.1c0-0.1,0-0.1-0.1-0.3
				c1.2-0.3,2.3-0.5,3.5-0.8c1.1-0.2,2.2-0.3,3.3-0.7c1.9-0.6,2.8-2.4,2.5-4.3c-0.7-5-2.7-9.4-5.8-13.3c-1.8-2.3-4-4.3-6.4-5.9
				c-0.9-0.6-1.4-0.5-2.2,0.3c-0.8,0.9-1.7,1.7-2.4,2.6c-0.6,0.8-1.1,1.6-1.5,2.5c-0.5,1.1-0.3,2.2,0.7,3.1c0.9,0.9,1.7,2.1,1.9,3.4
				c0.1,0.7,0.2,1.4-0.3,2c-1.1-1-1.2-2.9-2.9-3.3c0.1-2.8-1.4-4.6-3.7-4.6c-2.4,0-3.8,1.7-3.8,4.8c-7.9-2.3-13.2,0.9-16.8,7.8
				c-0.6-0.3-1.3-0.5-1.8-0.8c-0.9-0.5-1.7-1-2.2-2c-1.1-2.5-3.1-4-5.6-4.8c-3.7-1.1-7.4-1.4-11.2-1.5c-1.3,0-2.6,0.3-3.7,1
				c-2.2,1.4-2.3,3.8-0.2,5.4c0.2,0.1,0.4,0.2,0.5,0.3c4,2.3,8,4.6,12,6.8c0.3,0.1,0.5,0.3,0.8,0.4c0.6,0.2,1.1,0,1.5-0.6
				c0.3-0.5,0.3-1.1-0.2-1.6c-0.2-0.2-0.4-0.3-0.6-0.4c-4-2.3-7.9-4.5-11.9-6.8c-0.2-0.1-0.4-0.2-0.5-0.3c-0.5-0.4-0.5-0.7,0.1-1.1
				c0.4-0.2,0.9-0.5,1.3-0.5c1.4-0.1,2.8-0.2,4.2,0c2.5,0.3,5,0.7,7.4,1.2c1.5,0.3,2.9,1.2,3.5,2.7c1,2.3,2.8,3.6,5,4.4
				c1.3,0.5,2.5,0.9,3.8,1.3c-1.2,1.4-2.3,2.8-3.5,4.3c-0.1-0.1-0.3-0.2-0.5-0.3c-1.5-0.8-2.9-1.7-4.4-2.5c-1-0.5-1.9-0.2-2.1,0.8
				c-0.1,0.7,0.3,1.2,0.9,1.5c1.5,0.9,3,1.7,4.5,2.6c0.3,0.2,0.7,0.5,0.6,0.6c-0.1,0.3-0.4,0.7-0.7,0.8c-1.4,0.6-2.8,1.1-4.2,1.7
				c-0.5,0.2-0.7,0.1-1-0.3c-2.8-3.8-6.7-5.5-11.4-4.8c-4.7,0.7-7.9,3.5-9.5,8c-0.3,0.8-0.4,1.6-0.6,2.4v2.7c0,0.2,0.1,0.3,0.1,0.5
				c0.9,4.7,3.6,8,8.1,9.4c4.4,1.4,8.5,0.4,11.9-2.8c1.5-1.4,2.5-3.2,3.2-5.2c0.4,0,0.7,0,1,0.1C36,67,36,67,36.3,68.6
				c0.2,0.9,0.6,1.3,1.5,1.4c7.9,0,15.7,0,23.6,0c1.1,0,1.5-0.5,1.6-1.6c0.1-1.1,0.1-2.1,0.2-3.2c0.1-0.7,0.2-1.4,0.2-2.1
				c0-0.7-0.5-1.2-1.1-1.3c0,0-0.1,0-0.1,0c-0.6,0-1.1,0.4-1.3,1c-0.1,0.2-0.1,0.5-0.1,0.7c-0.2,1.3-0.3,2.6-0.4,3.9
				c-0.1,0-0.2,0.1-0.2,0.1c-7,0-14,0-20.9,0c-0.5,0-0.6-0.2-0.6-0.6c0-1.9-0.2-3.8-0.1-5.6c0.1-2.6,0.8-5,2.2-7.1
				c1.8-2.7,4.6-3.8,7.6-4.3c4.7-0.8,9.4-1.8,13.8-3.6c2.3-0.9,4.5-2,6.2-3.9c1.8-2,2.3-4.2,1.3-6.7c-0.5-1.3-1.4-2.4-2.1-3.6
				c-0.1-0.2-0.3-0.7-0.1-0.8c0.8-1.2,1.7-2.3,2.6-3.5c5.6,4.4,9.4,9.6,10.6,16.5c0.3,1.7-0.1,2.3-1.8,2.5c-2.8,0.3-5.5,0.9-8,2.2
				c-3.9,1.9-6.6,5-8.4,8.9c0,0,0,0.1-0.1,0.1c-0.1,0.4-0.1,0.7,0,1c0.1,0.3,0.3,0.5,0.7,0.7c0.7,0.3,1.3,0,1.8-0.8
				c0.2-0.4,0.4-0.8,0.5-1.1c0.7-1.4,1.6-2.7,2.8-3.8c0.2,0.3,0.3,0.5,0.5,0.7c0.6,0.6,0.5,1.1,0,1.9c-2.1,2.8-2.8,5.9-2.1,9.3
				c1.8,9,12.6,12.6,19.5,6.5C90,68.8,91.1,63.1,88.8,58.2z M22,72.7c-4.5,0.1-8.3-3-9.3-7.4c-0.9-4.3,1.4-8.7,5.5-10.4
				c4-1.7,8.7-0.4,11.1,3.2c-0.6,0.3-1.2,0.5-1.8,0.7c-0.2,0.1-0.5-0.1-0.7-0.3c-4.1-3.9-10.5-2.1-11.9,3.3c-0.9,3.3,1,6.9,4.2,8.2
				c3.2,1.3,7,0.1,8.7-2.9c0.4-0.7,0.9-0.9,1.6-0.8c0.3,0.1,0.7,0.1,1.1,0.1C30,69.7,25.9,72.6,22,72.7z M20.2,63.6
				c0.2,1,1.3,1.9,2.4,2c0.5,0,0.9,0.1,1.4,0.1c0.5,0,0.9,0.1,1.4,0.2c-0.9,1.9-3.8,2.5-5.8,1.3c-2.2-1.3-2.9-4.2-1.5-6.4
				c1.5-2.2,4.4-2.7,6.5-1.1c-1,0.5-2,0.9-2.9,1.4C20.5,61.8,20,62.7,20.2,63.6z M35.7,64.3c-4-0.4-7.9-0.8-11.9-1.2
				c0-0.1,0-0.1,0-0.2c4.1-1.6,8.3-3.2,12.4-4.9C36,60.2,35.8,62.2,35.7,64.3z M44.5,45.1c-0.7-0.1-1.3-0.3-2-0.5
				c3.8-7.5,10.4-8.4,17.1-4.4c-0.8,0.1-1.5,0.3-2.3,0.4c-4.2,0.8-8.2,2.1-11.9,4.3C45.1,45.2,44.8,45.2,44.5,45.1z M46.9,47.3
				c0-0.1-0.1-0.1-0.1-0.2c1.3-0.6,2.6-1.3,3.9-1.8c3.2-1.3,6.5-2.1,9.9-2.5c0.5-0.1,0.9,0,1,0.6C56.9,45.4,51.9,46.4,46.9,47.3z
				 M60.6,36.3c-0.7,0-1.3-0.5-1.3-1.2c0-0.6,0.5-1.2,1.2-1.2c0.7,0,1.3,0.5,1.3,1.2C61.7,35.7,61.2,36.3,60.6,36.3z M64.1,42.2
				c-0.5-0.8-1-1.6-1.5-2.5c0.5-0.3,0.9-0.5,1.3-0.8c0.5,0.8,1,1.6,1.5,2.4C65,41.7,64.6,41.9,64.1,42.2z M71.4,51.3
				c0.2,0.3,0.3,0.5,0.4,0.7c2.1,3.3,4.1,6.7,6.2,10c0.1,0.2,0.3,0.4,0.3,0.5c0,0.4-0.1,0.7-0.2,1.1c-0.4-0.1-0.7-0.1-1.1-0.3
				c-0.1-0.1-0.2-0.3-0.3-0.5c-2.1-3.4-4.2-6.7-6.2-10.1c-0.1-0.2-0.3-0.4-0.4-0.7C70.6,51.8,71,51.6,71.4,51.3z M80.5,61
				c-0.4-0.6-0.8-1.2-1.2-1.9c1.4,0,3.4,2.1,3.3,4.4c-0.2,2.6-2.3,4.5-4.9,4.3c-2.4-0.2-4.2-2.3-4.1-5c0.4,0.7,0.8,1.3,1.1,1.8
				c1.2,1.8,3.1,2.3,4.8,1.2C81.2,64.8,81.6,62.8,80.5,61z M83.5,71c-3.8,2.6-8.8,2.2-11.9-1c-3.3-3.3-3.7-8.2-0.9-12
				c0.4,0.6,0.8,1.2,1.1,1.9c0.1,0.1,0,0.4-0.1,0.6c-1.6,3.7-0.1,7.7,3.6,9.4c3.3,1.6,7.5,0,9.2-3.4c2.2-4.4-0.9-9.9-5.8-10.2
				c-0.9-0.1-1.4-0.3-1.8-1.1c-0.1-0.3-0.3-0.6-0.5-0.9c4-1,8.5,1.3,10.3,5.3C88.4,63.6,87.1,68.5,83.5,71z"/>
			<path class="st1" d="M82.7,63.5c-0.2,2.7-2.3,4.5-4.9,4.3c-2.4-0.2-4.2-2.3-4-5c0.4,0.7,0.8,1.3,1.1,1.8c1.2,1.8,3.1,2.3,4.8,1.2
				c1.6-1,2-3,0.9-4.8c-0.4-0.6-0.8-1.2-1.2-1.9C80.8,59.1,82.8,61.2,82.7,63.5z"/>
			<path class="st1" d="M83.5,71c-3.8,2.6-8.8,2.2-11.9-1c-3.3-3.3-3.6-8.2-0.9-12c0.4,0.6,0.8,1.2,1.1,1.9c0.1,0.1,0,0.4-0.1,0.6
				c-1.6,3.7-0.1,7.7,3.6,9.4c3.3,1.6,7.5,0,9.2-3.4c2.2-4.4-0.9-9.9-5.8-10.2c-0.9-0.1-1.4-0.3-1.8-1.1c-0.1-0.3-0.3-0.6-0.5-0.9
				c4-1,8.5,1.3,10.3,5.3C88.4,63.6,87.1,68.5,83.5,71z"/>
			<path class="st1" d="M25.4,65.9c-0.9,1.9-3.8,2.5-5.8,1.3c-2.2-1.3-2.9-4.2-1.5-6.4c1.4-2.2,4.4-2.7,6.5-1.1
				c-1,0.5-2,0.9-2.9,1.4c-1.1,0.6-1.6,1.5-1.4,2.5c0.2,1,1.3,1.9,2.4,2c0.5,0.1,0.9,0.1,1.4,0.1C24.5,65.8,25,65.9,25.4,65.9z"/>
			<path class="st1" d="M30.6,66.4c-0.6,3.3-4.6,6.2-8.6,6.2c-4.5,0-8.3-3-9.3-7.4c-0.9-4.3,1.4-8.7,5.5-10.4
				c4-1.7,8.7-0.4,11.1,3.2c-0.6,0.3-1.2,0.5-1.8,0.7c-0.2,0.1-0.5-0.1-0.7-0.3c-4.1-3.9-10.5-2.1-11.9,3.3c-0.9,3.3,1,6.9,4.2,8.2
				c3.2,1.3,7,0.1,8.7-2.9c0.4-0.7,0.8-0.9,1.6-0.8C29.9,66.4,30.2,66.4,30.6,66.4z"/>
			<path class="st1" d="M36.2,58.1c-0.2,2.1-0.3,4.1-0.5,6.2c-4-0.4-7.9-0.8-11.9-1.2c0-0.1,0-0.1,0-0.2
				C27.9,61.3,32,59.7,36.2,58.1z"/>
			<path class="st1" d="M61.7,43.4c-4.8,1.9-9.8,2.9-14.8,3.9c0-0.1-0.1-0.1-0.1-0.2c1.3-0.6,2.6-1.3,3.9-1.8c3.2-1.3,6.5-2,10-2.5
				C61.2,42.7,61.6,42.7,61.7,43.4z"/>
			<path class="st1" d="M65.4,41.4c-0.4,0.3-0.8,0.6-1.3,0.9c-0.5-0.8-1-1.6-1.5-2.5c0.5-0.3,0.9-0.5,1.3-0.8
				C64.4,39.8,64.9,40.5,65.4,41.4z"/>
			<path class="st1" d="M61.7,35.1c0,0.6-0.5,1.2-1.2,1.2c-0.7,0-1.3-0.5-1.3-1.2c0-0.6,0.5-1.2,1.2-1.2
				C61.1,33.9,61.7,34.4,61.7,35.1z"/>
			<path class="st1" d="M59.6,40.3c-0.8,0.1-1.5,0.3-2.3,0.5c-4.2,0.8-8.2,2.1-11.9,4.3c-0.2,0.1-0.6,0.2-0.9,0.1
				c-0.7-0.1-1.3-0.3-2-0.5C46.3,37.2,52.9,36.3,59.6,40.3z"/>
			<path class="st0" d="M60.4,52.6c-0.2,0.5-0.3,0.8-0.5,1c-1.7,2-3.4,4.1-5.1,6.1c-0.6,0.7-1.4,0.8-1.9,0.3c-0.6-0.5-0.6-1.3,0-1.9
				c1.7-2,3.4-4,5.1-6c0.4-0.5,1-0.8,1.6-0.5C59.8,51.8,60,52.3,60.4,52.6z"/>
		</g>
	</g>
	<path class="st2" d="M80.6,44.1c-1.2-6.9-5-12.2-10.6-16.5c-0.9,1.2-1.8,2.3-2.6,3.5c-0.1,0.2,0,0.6,0.1,0.8
		c0.7,1.2,1.6,2.3,2.1,3.6c1,2.4,0.5,4.7-1.3,6.7c-1.7,1.9-3.9,3-6.2,3.9c-4.4,1.8-9.1,2.8-13.8,3.6c-3.1,0.5-5.8,1.6-7.6,4.3
		c-1.4,2.1-2.1,4.6-2.2,7.1c-0.1,1.9,0.1,3.7,0.1,5.6c0,0.4,0.1,0.6,0.6,0.6c7,0,14,0,20.9,0c0.1,0,0.1,0,0.2-0.1
		c0.2-1.3,0.3-2.6,0.4-3.9c0-0.2,0.1-0.5,0.1-0.7c0.2-0.6,0.7-1,1.3-1l0.1-2.9c-0.1-0.3-0.1-0.6,0-1c0,0,0-0.1,0.1-0.1
		c1.7-4,4.5-7,8.4-8.9c2.5-1.3,5.2-1.9,8-2.2C80.5,46.4,80.8,45.8,80.6,44.1z M59.8,53.7c-1.7,2-3.4,4.1-5.1,6.1
		c-0.6,0.7-1.4,0.8-1.9,0.3c-0.6-0.5-0.6-1.3,0-1.9c1.7-2,3.4-4,5.1-6c0.4-0.5,1-0.8,1.6-0.5c0.4,0.2,0.6,0.7,0.9,1
		C60.1,53.1,60,53.4,59.8,53.7z"/>
	<line class="st3" x1="62.2" y1="61.7" x2="62.1" y2="64.3"/>
	<polyline class="st3" points="62.3,58.8 62.3,57.8 62.4,56.3 	"/>
</g>
</svg>
