<?xml version="1.0" encoding="utf-8"?>
<!-- Generator: Adobe Illustrator 23.0.1, SVG Export Plug-In . SVG Version: 6.00 Build 0)  -->
<svg version="1.1" id="Layer_1" xmlns="http://www.w3.org/2000/svg" xmlns:xlink="http://www.w3.org/1999/xlink" x="0px" y="0px"
	 viewBox="0 0 100 100" style="enable-background:new 0 0 100 100;" xml:space="preserve">
<style type="text/css">
	.st0{fill:#232323;}
	.st1{fill:#F9BA48;}
	.st2{fill:#FFFFFF;}
</style>
<g>
	<g>
		<path class="st0" d="M66.2,33.4c0,0.7-0.6,1.3-1.3,1.3H45.4c-0.7,0-1.3-0.6-1.3-1.3c0-0.7,0.6-1.3,1.3-1.3h19.5
			C65.7,32.1,66.2,32.7,66.2,33.4z"/>
		<path class="st0" d="M81.2,40.3h-6V27.5c0-2.1-1.7-3.8-3.8-3.8H18.8c-2.1,0-3.8,1.7-3.8,3.8v11.7c0,2.1,1.7,3.8,3.8,3.8h6V57h-6
			c-2.1,0-3.8,1.7-3.8,3.8v11.7c0,2.1,1.7,3.8,3.8,3.8h52.6c2.1,0,3.8-1.7,3.8-3.8V59.7h6c2.1,0,3.8-1.7,3.8-3.8V44.1
			C85,42.1,83.3,40.3,81.2,40.3z M24,40.3h-5.2c-0.6,0-1.2-0.5-1.2-1.2V27.5c0-0.6,0.5-1.2,1.2-1.2H24V40.3z M24.8,73.7h-6
			c-0.6,0-1.2-0.5-1.2-1.2V60.8c0-0.6,0.5-1.2,1.2-1.2h6V73.7z M36.9,26.3h34.5c0.7,0,1.2,0.5,1.2,1.2v12.9H36.9V26.3z M63.6,43
			v22.7l-4.6-2c-0.3-0.1-0.7-0.1-1.1,0l-4.6,2V43H63.6z M50.7,43V57H27.4V43H50.7z M26.6,26.3h7.7v14.1h-7.7V26.3z M33.4,73.7h-6
			V59.7h6V73.7z M41.9,73.7h-5.8V59.7h5.8V73.7z M72.6,72.5c0,0.6-0.5,1.2-1.2,1.2H44.5V59.7h6.2v8c0,0.4,0.2,0.9,0.6,1.1
			c0.4,0.3,0.8,0.3,1.3,0.1l5.9-2.6l5.9,2.6c0.4,0.2,0.9,0.1,1.2-0.1c0.4-0.2,0.6-0.6,0.6-1.1v-8h6.4V72.5z M82.4,55.9
			c0,0.6-0.5,1.2-1.2,1.2h-15V43h15c0.7,0,1.2,0.5,1.2,1.2V55.9z"/>
		<path class="st1" d="M24,26.3v14.1h-5.2c-0.6,0-1.2-0.5-1.2-1.2V27.5c0-0.6,0.5-1.2,1.2-1.2H24z"/>
		<rect x="26.6" y="26.3" class="st2" width="7.7" height="14.1"/>
		<path class="st2" d="M71.4,26.3H36.9v14.1h35.7V27.5C72.6,26.8,72.1,26.3,71.4,26.3z M64.9,34.7H45.4c-0.7,0-1.3-0.6-1.3-1.3
			c0-0.7,0.6-1.3,1.3-1.3h19.5c0.7,0,1.3,0.6,1.3,1.3C66.2,34.1,65.7,34.7,64.9,34.7z"/>
		<path class="st2" d="M82.4,44.1v11.7c0,0.6-0.5,1.2-1.2,1.2h-15V43h15C81.9,43,82.4,43.5,82.4,44.1z"/>
		<path class="st1" d="M63.6,43v22.7l-4.6-2c-0.3-0.1-0.7-0.1-1.1,0l-4.6,2V43H63.6z"/>
		<path class="st2" d="M27.4,43V57h23.3V43H27.4z M42.7,51.3h-7.5c-0.7,0-1.3-0.6-1.3-1.3c0-0.7,0.6-1.3,1.3-1.3h7.5
			c0.7,0,1.3,0.6,1.3,1.3C44,50.7,43.4,51.3,42.7,51.3z"/>
		<path class="st2" d="M72.6,59.7v12.9c0,0.6-0.5,1.2-1.2,1.2H44.5V59.7h6.2v8c0,0.4,0.2,0.9,0.6,1.1c0.4,0.3,0.8,0.3,1.3,0.1
			l5.9-2.6l5.9,2.6c0.4,0.2,0.9,0.1,1.2-0.1c0.4-0.2,0.6-0.6,0.6-1.1v-8H72.6z"/>
		<rect x="36.1" y="59.7" class="st2" width="5.8" height="14.1"/>
		<rect x="27.4" y="59.7" class="st2" width="6" height="14.1"/>
		<path class="st1" d="M24.8,59.7v14.1h-6c-0.6,0-1.2-0.5-1.2-1.2V60.8c0-0.6,0.5-1.2,1.2-1.2H24.8z"/>
		<path class="st0" d="M44,50c0,0.7-0.6,1.3-1.3,1.3h-7.5c-0.7,0-1.3-0.6-1.3-1.3c0-0.7,0.6-1.3,1.3-1.3h7.5
			C43.4,48.7,44,49.3,44,50z"/>
	</g>
</g>
</svg>
