<?xml version="1.0" encoding="utf-8"?>
<!-- Generator: Adobe Illustrator 23.0.1, SVG Export Plug-In . SVG Version: 6.00 Build 0)  -->
<svg version="1.1" id="Layer_1" xmlns="http://www.w3.org/2000/svg" xmlns:xlink="http://www.w3.org/1999/xlink" x="0px" y="0px"
	 viewBox="0 0 100 100" style="enable-background:new 0 0 100 100;" xml:space="preserve">
<style type="text/css">
	.st0{fill:#232323;}
	.st1{fill:#FFFFFF;}
	.st2{fill:#F9BA48;}
</style>
<g>
	<g>
		<path class="st0" d="M82.3,42.9c0.4,0,0.9,0,1.3,0c0.8,0,1.3-0.6,1.3-1.3c0-0.8-0.6-1.3-1.4-1.3c-1.3,0-2.6,0-3.9,0h-3.3v-5.8h4.6
			c0.9,0,1.8,0,2.6,0c0.7,0,1.3-0.6,1.3-1.3c0-0.3-0.1-0.7-0.4-0.9c-0.2-0.3-0.6-0.4-0.9-0.4c-1.5,0-3,0-4.5,0h-2.8v-1.4
			c0-0.5,0-0.9,0-1.3c0-0.5-0.1-0.9-0.5-1.2c-1.3-1.3-2.6-2.6-4-4c-0.4-0.3-0.7-0.5-1.2-0.5c-0.4,0-0.8,0-1.3,0h-1.4v-4.2
			c0-1,0-2,0-3c0-0.8-0.6-1.3-1.3-1.3c-0.7,0-1.3,0.6-1.3,1.3c0,1.5,0,2.9,0,4.4v2.7h-5.8v-3.8c0-1.1,0-2.1,0-3.2
			c0-0.4-0.2-0.8-0.4-1.1C59,15.1,58.7,15,58.4,15c-0.8,0-1.3,0.6-1.3,1.4c0,1.5,0,2.9,0,4.4l0,2.7h-5.7l0-1c0-0.2,0-0.3,0-0.5
			l0-5.4c0-0.6-0.2-1-0.4-1.3C50.6,15.1,50.3,15,50,15c-1.2,0-1.3,1.2-1.3,1.7v6.8h-5.8v-3.2c0-1.3,0-2.5,0-3.8
			c0-0.9-0.5-1.5-1.3-1.5s-1.3,0.6-1.3,1.5v7h-5.8v-3.2c0-1.3,0-2.5,0-3.8c0-0.9-0.5-1.5-1.3-1.5c-0.4,0-0.7,0.1-0.9,0.4
			c-0.3,0.3-0.4,0.7-0.4,1.1v7h-1.4c-0.4,0-0.9,0-1.3,0c-0.5,0-0.9,0.2-1.3,0.6l-0.1,0.1c-1.2,1.2-2.4,2.4-3.6,3.6
			c-0.5,0.5-0.7,1-0.7,1.6c0,0.4,0,0.8,0,1.2v1.3h-0.8c-0.6,0-1.2,0-1.7,0c-1.4,0-2.7,0-4,0c-1,0-1.6,0.2-2,0.9v0.8
			c0.4,0.7,0.9,1,2,0.9c1.3-0.1,2.7,0,4,0c0.6,0,1.1,0,1.7,0h0.8v5.7l-0.9,0.1c-0.2,0-0.3,0-0.5,0c-0.5,0-1,0-1.4,0
			c-1.2,0-2.4,0-3.7,0c-1,0-1.6,0.2-2,0.9V42c0.4,0.7,0.9,1,2,0.9c1.3-0.1,2.7,0,4,0c0.6,0,1.1,0,1.7,0h0.8v5.8H22c-0.5,0-1,0-1.5,0
			c-1.2,0-2.4,0-3.6,0c-1,0-1.6,0.2-2,0.9v0.8c0.4,0.7,0.9,1,2,0.9c1.3,0,2.7,0,4,0c0.6,0,1.1,0,1.7,0h0.8v5.8H22c-0.5,0-1,0-1.5,0
			c-1.2,0-2.4,0-3.5,0c-1,0-1.6,0.2-2,0.9v0.7c0.4,0.7,0.9,1,2,0.9c1.3,0,2.7,0,4,0h2.5v5.7l-0.9,0.1c-0.1,0-0.3,0-0.5,0
			c-0.5,0-1,0-1.4,0c-1.2,0-2.5,0-3.7,0c-1,0-1.6,0.2-2,0.9v0.7c0.4,0.7,0.9,1,2,0.9c1.3,0,2.6,0,4,0c0.6,0,1.2,0,1.8,0h0.8v1.4
			c0,0.4,0,0.9,0,1.3c0,0.5,0.2,0.8,0.5,1.2l4,4c0.3,0.3,0.7,0.5,1.2,0.5c0.4,0,0.8,0,1.3,0h1.4V78c0,0.5,0,1,0,1.5
			c0,1.2,0,2.4,0,3.6c0,1,0.2,1.6,0.9,2h0.8c0.7-0.4,1-1,0.9-2c0-1.3,0-2.7,0-4c0-0.6,0-1.1,0-1.7v-0.8h5.8V78c0,0.5,0,1,0,1.5
			c0,1.2,0,2.4,0,3.5c0,1,0.2,1.6,0.9,2H42c0.7-0.4,1-1,0.9-2c-0.1-1.3,0-2.7,0-4c0-0.6,0-1.1,0-1.7v-0.8h5.8V78c0,0.5,0,1,0,1.5
			c0,1.2,0,2.4,0,3.6c0,1,0.2,1.6,0.9,2h0.7c0.7-0.4,1-1,0.9-2c0-1.3,0-2.7,0-4v-2.5h5.8V78c0,0.5,0,1,0,1.5c0,1.2,0,2.4,0,3.5
			c0,1,0.2,1.6,0.9,2h0.7c0.7-0.4,1-1,0.9-2c-0.1-1.3,0-2.7,0-4c0-0.6,0-1.1,0-1.7v-0.8h5.8V78c0,0.5,0,1,0,1.5c0,1.2,0,2.4,0,3.5
			c0,1,0.2,1.6,0.9,2h0.7c0.7-0.4,1-1,0.9-2c0-1.3,0-2.6,0-4c0-0.6,0-1.1,0-1.7v-0.8l1.4,0c0.4,0,0.8,0,1.3,0c0.5,0,1-0.1,1.4-0.6
			c1.1-1.1,2.4-2.4,3.7-3.7c0.5-0.5,0.7-1,0.7-1.7c0-0.4,0-0.7,0-1.1l0-1.3l1-0.1c0.2,0,0.3,0,0.5,0h2.1c1.1,0,2.3,0,3.4,0
			c0.5,0,0.9-0.1,1.2-0.4c0.2-0.2,0.3-0.5,0.3-0.9c0-0.8-0.6-1.3-1.5-1.3c-1.4,0-2.9,0-4.3,0l-2.7,0v-5.8h3.1c1.3,0,2.6,0,3.8,0
			c0.9,0,1.5-0.5,1.5-1.3c0-0.8-0.6-1.3-1.5-1.3c-1.4,0-2.9,0-4.3,0h-2.7v-5.8h3.1c1.3,0,2.6,0,3.8,0c0.9,0,1.5-0.5,1.5-1.3
			c0-0.4-0.1-0.7-0.3-0.9c-0.3-0.3-0.7-0.4-1.2-0.4h-7v-5.8H82.3z M73.9,45.2c0,1.6,0,3.3,0,4.9v3.8c0,5.2,0,10.4,0,15.5
			c0,0.7-0.2,1.3-0.7,1.7c-0.3,0.2-0.5,0.5-0.8,0.8c-0.6,0.7-1.2,1.4-2,1.7c-0.5,0.2-1.1,0.3-1.7,0.3c-0.4,0-0.7,0-1.1,0
			c-0.3,0-0.6,0-1-0.1l-10.2,0c-8.6,0-17.2,0-25.8,0c-0.5,0-1.2-0.1-1.8-0.8c-0.6-0.6-1.2-1.3-2-2c-0.5-0.5-0.7-1-0.7-1.7
			c0-6.7,0-13.4,0-20v-7.5c0-3.8,0-7.6,0-11.4c0-0.7,0.2-1.2,0.7-1.7c0.8-0.7,1.4-1.4,2-2c0.6-0.6,1.2-0.7,1.7-0.7
			c6.5,0,13,0,19.4,0c6.5,0,12.9,0,19.4,0c0.5,0,1.2,0.1,1.8,0.8c0.1,0.2,0.3,0.3,0.4,0.4c2.1,1.4,2.3,3.5,2.3,5.4
			C73.8,36.8,73.8,41.1,73.9,45.2z"/>
		<path class="st1" d="M73.9,50.1c0-1.6,0-3.3,0-4.9c0-4.1,0-8.3,0.1-12.5c0-1.8-0.2-3.9-2.3-5.4c-0.1-0.1-0.3-0.3-0.4-0.4
			c-0.6-0.7-1.3-0.8-1.8-0.8c-6.5,0-13,0-19.4,0c-6.5,0-13,0-19.4,0c-0.5,0-1.1,0.1-1.7,0.7c-0.6,0.7-1.3,1.3-2,2
			c-0.5,0.5-0.7,1-0.7,1.7c0,3.8,0,7.6,0,11.4v7.5c0,6.7,0,13.4,0,20c0,0.7,0.2,1.2,0.7,1.7c0.8,0.7,1.4,1.4,2,2
			c0.6,0.7,1.3,0.8,1.8,0.8c8.6,0,17.2,0,25.8,0l10.2,0c0.4,0,0.7,0,1,0.1c0.4,0,0.7,0,1.1,0c0.6,0,1.1-0.1,1.7-0.3
			c0.8-0.3,1.4-1,2-1.7c0.2-0.3,0.5-0.6,0.8-0.8c0.5-0.5,0.7-1,0.7-1.7c0-5.2,0-10.3,0-15.5V50.1z M68.1,42.4c0,0.9-0.3,1.3-1.1,1.5
			c-0.3,0.1-0.6,0.2-0.9,0.2c-0.4,0.1-0.8,0.2-1.2,0.3c-0.5,0.1-1,0.7-1,1.3c0,2.9,0,5.8,0,8.5c0,0.6,0.5,1.1,1,1.3
			c0.4,0.1,0.8,0.2,1.2,0.3c0.3,0.1,0.5,0.1,0.8,0.2c0.9,0.3,1.2,0.6,1.2,1.6v9c0,1-0.5,1.5-1.6,1.5c-3,0-5.9,0-8.9,0
			c-1,0-1.3-0.3-1.6-1.2L56,66.6c-0.2-0.5-0.3-1-0.4-1.5c-0.1-0.8-0.6-1.2-1.5-1.2c-2.7,0-5.4,0-8.1,0c-0.9,0-1.4,0.4-1.5,1.3
			c-0.1,0.7-0.3,1.4-0.5,1.9c-0.2,0.8-0.6,1.1-1.4,1.1c-3.1,0-6.1,0-9.2,0c-0.9,0-1.4-0.5-1.4-1.4c0-1.1,0-2.1,0-3.2v-2.7
			c0-1,0-2,0-3.1c0-1,0.3-1.4,1.3-1.6c0.2-0.1,0.5-0.1,0.7-0.2c0.4-0.1,0.8-0.2,1.2-0.3c0.5-0.2,1-0.7,1-1.3c0-1.7,0-3.3,0-4.9
			c0-1.1,0-2.3,0-3.4c0-0.5-0.2-1.2-1.1-1.4c-0.6-0.1-1.2-0.3-1.9-0.5c-0.9-0.3-1.2-0.6-1.2-1.5c0-3,0-6,0-9c0-1,0.5-1.5,1.5-1.5
			c3,0,6,0,8.9,0c0.9,0,1.3,0.3,1.6,1.2c0.1,0.3,0.1,0.5,0.2,0.8c0.1,0.4,0.2,0.8,0.3,1.2c0.2,0.5,0.7,1,1.3,1c2.7,0,5.6,0,8.5,0
			c0.6,0,1.1-0.5,1.3-1c0.1-0.4,0.2-0.8,0.3-1.2c0.1-0.3,0.1-0.5,0.2-0.8c0.3-0.9,0.7-1.2,1.6-1.2c3,0,6,0,9,0c1,0,1.5,0.5,1.5,1.5
			C68.1,36.4,68.1,39.4,68.1,42.4z"/>
		<path class="st0" d="M64.9,44.5c0.4-0.1,0.8-0.2,1.2-0.3c0.3-0.1,0.6-0.1,0.9-0.2c0.8-0.2,1.1-0.6,1.1-1.5c0-3,0-6,0-9
			c0-1-0.5-1.5-1.5-1.5c-3,0-6,0-9,0c-0.9,0-1.3,0.3-1.6,1.2c-0.1,0.3-0.1,0.5-0.2,0.8c-0.1,0.4-0.2,0.8-0.3,1.2
			c-0.2,0.5-0.7,1-1.3,1c-2.9,0-5.8,0-8.5,0c-0.6,0-1.1-0.5-1.3-1c-0.1-0.4-0.2-0.8-0.3-1.2c-0.1-0.3-0.1-0.5-0.2-0.8
			c-0.3-0.9-0.6-1.2-1.6-1.2c-3,0-6,0-8.9,0c-1,0-1.5,0.5-1.5,1.5c0,3,0,6,0,9c0,0.9,0.3,1.3,1.2,1.5c0.7,0.2,1.3,0.4,1.9,0.5
			c0.9,0.2,1.1,0.9,1.1,1.4c0,1.1,0,2.3,0,3.4c0,1.6,0,3.3,0,4.9c0,0.6-0.5,1.1-1,1.3c-0.4,0.1-0.8,0.2-1.2,0.3
			c-0.2,0.1-0.5,0.1-0.7,0.2c-0.9,0.3-1.3,0.7-1.3,1.6c0,1,0,2.1,0,3.1v2.7c0,1.1,0,2.1,0,3.2c0,0.9,0.5,1.4,1.4,1.4
			c3,0,6.1,0,9.2,0c0.8,0,1.2-0.3,1.4-1.1c0.2-0.5,0.3-1.2,0.5-1.9c0.2-0.8,0.7-1.2,1.5-1.3c2.7,0,5.4,0,8.1,0
			c0.9,0,1.4,0.4,1.5,1.2c0.1,0.5,0.2,1,0.4,1.5l0.1,0.2c0.3,0.9,0.7,1.2,1.6,1.2c3,0,5.9,0,8.9,0c1.1,0,1.6-0.5,1.6-1.5v-9
			c0-0.9-0.3-1.3-1.2-1.6c-0.3-0.1-0.5-0.1-0.8-0.2c-0.4-0.1-0.8-0.2-1.2-0.3c-0.5-0.2-1-0.7-1-1.3c0-2.7,0-5.5,0-8.5
			C63.9,45.2,64.4,44.6,64.9,44.5z M62.6,57.6c0.5,0.1,1,0.3,1.5,0.4l1.3,0.3v7.1h-7.1L58,64.1c-0.1-0.5-0.3-1.1-0.4-1.6
			c-0.2-0.9-0.7-1.2-1.6-1.2c-4,0-8,0-12,0c-1,0-1.4,0.3-1.6,1.3l-0.5,2c0,0.1,0,0.1,0,0.2l-0.2,0.6L41,65.5h-6.5v-7.1l2.9-0.7
			c1-0.3,1.3-0.7,1.3-1.6c0-4,0-8,0-12c0-1-0.3-1.4-1.3-1.6c-0.5-0.1-1-0.3-1.5-0.4l-1.3-0.3v-7.1h7.1l0.7,2.9
			c0.3,1,0.7,1.3,1.6,1.3c4,0,8,0,12,0c0.9,0,1.4-0.3,1.6-1.3l0.5-2c0-0.1,0-0.1,0.1-0.2l0.2-0.6l0.6-0.1h6.5v7.1l-2.9,0.7
			c-1,0.3-1.3,0.7-1.3,1.6v12C61.3,57,61.6,57.4,62.6,57.6z"/>
		<path class="st2" d="M62.6,42.4l2.9-0.7v-7.1H59l-0.6,0.1l-0.2,0.6c0,0.1,0,0.1-0.1,0.2l-0.5,2c-0.3,1-0.7,1.3-1.6,1.3
			c-4,0-8,0-12,0c-1,0-1.4-0.3-1.6-1.3l-0.7-2.9h-7.1v7.1l1.3,0.3c0.5,0.1,1,0.3,1.5,0.4c1,0.3,1.3,0.7,1.3,1.6c0,4,0,8,0,12
			c0,1-0.3,1.4-1.3,1.6l-2.9,0.7v7.1H41l0.6-0.1l0.2-0.6c0-0.1,0-0.1,0-0.2l0.5-2c0.3-1,0.7-1.3,1.6-1.3c4,0,8,0,12,0
			c0.9,0,1.4,0.3,1.6,1.2c0.2,0.5,0.3,1.1,0.4,1.6l0.3,1.3h7.1v-7.1L64.1,58c-0.5-0.1-1-0.3-1.5-0.4c-1-0.3-1.3-0.7-1.3-1.6V44
			C61.3,43,61.6,42.6,62.6,42.4z M55.5,54c0,1.2-0.8,1.4-1.4,1.5H46c-1,0-1.5-0.5-1.5-1.5c0-2.7,0-5.4,0-8c0-1,0.5-1.5,1.5-1.5
			c1.4,0,2.7,0,4.1,0c1.3,0,2.7,0,4,0c0.9,0,1.4,0.5,1.4,1.4C55.5,48.7,55.5,51.4,55.5,54z"/>
		<path class="st0" d="M54.1,44.5c-1.3,0-2.7,0-4,0c-1.4,0-2.8,0-4.1,0c-1,0-1.5,0.5-1.5,1.5c0,2.7,0,5.4,0,8c0,1,0.5,1.5,1.5,1.5
			H54c0.7,0,1.4-0.3,1.4-1.5c0-2.7,0-5.4,0-8.1C55.5,45,55,44.5,54.1,44.5z M52.8,52.9h-5.7v-5.7h5.7V52.9z"/>
		<rect x="47.1" y="47.1" class="st1" width="5.7" height="5.7"/>
	</g>
</g>
</svg>
