<?xml version="1.0" encoding="utf-8"?>
<!-- Generator: Adobe Illustrator 23.0.1, SVG Export Plug-In . SVG Version: 6.00 Build 0)  -->
<svg version="1.1" id="Layer_1" xmlns="http://www.w3.org/2000/svg" xmlns:xlink="http://www.w3.org/1999/xlink" x="0px" y="0px"
	 viewBox="0 0 100 100" style="enable-background:new 0 0 100 100;" xml:space="preserve">
<style type="text/css">
	.st0{fill:#F0BC5E;}
	.st1{fill:#232323;}
</style>
<g id="XMLID_2211_">
	<path id="XMLID_2285_" class="st0" d="M21.6,61.6h33.5v21.9H21.6V61.6z"/>
	<path id="XMLID_2257_" class="st1" d="M90,56.5v-6.8l-6.5-12.9v-6.1H62.2l-0.6-1.5v-6.2H51.3v2.6H59v2.6h-9v2.6h2.9l3.2,11.6h-5
		l-2.3-9.3l-2.5,0.6l2.2,8.7h-5l-1.1-5.4l-2.5,0.5l1,4.9h-4.6l1-4.9l-2.5-0.5l-1.1,5.4h-5l2.2-8.7l-2.5-0.6l-2.3,9.3h-5l3.2-11.6
		h2.9v-2.6h-9v-2.6h7.7v-2.6H15.2v6.2L10,43.3v4.1c0,2.4,1.7,4.4,3.9,5v29.9h-2.6V90h54.2v-5.2H90v-7.7h-3.9V56.5H90z M62.9,53.9
		v-1.5c0.8-0.2,1.5-0.6,2.1-1.1h22.4v2.6H62.9z M20.3,44.8h5.2v2.6c0,1.4-1.2,2.6-2.6,2.6c-1.4,0-2.6-1.2-2.6-2.6V44.8z M28.1,44.8
		h5.2v2.6c0,1.4-1.2,2.6-2.6,2.6c-1.4,0-2.6-1.2-2.6-2.6V44.8z M35.8,44.8H41v2.6c0,1.4-1.2,2.6-2.6,2.6s-2.6-1.2-2.6-2.6V44.8z
		 M43.5,44.8h5.2v2.6c0,1.4-1.2,2.6-2.6,2.6s-2.6-1.2-2.6-2.6V44.8z M51.3,44.8h5.2v2.6c0,1.4-1.2,2.6-2.6,2.6s-2.6-1.2-2.6-2.6
		V44.8z M59,44.8h5.2v2.6c0,1.4-1.2,2.6-2.6,2.6S59,48.8,59,47.4V44.8z M65,38.4h16.5l5.2,10.3h-20c0.1-0.4,0.2-0.8,0.2-1.3v-4.1
		L65,38.4z M81,33.2v2.6H64l-0.9-2.6H81z M55.6,30.6h3.9l4.2,11.6h-4.9L55.6,30.6z M18,42.3h-4.9l4.2-11.6h3.9L18,42.3z M12.6,47.4
		v-2.6h5.2v2.6c0,1.4-1.2,2.6-2.6,2.6S12.6,48.8,12.6,47.4z M16.5,52.4c1-0.3,1.9-0.8,2.6-1.6c0.9,1.1,2.3,1.8,3.9,1.8
		c1.5,0,2.9-0.7,3.9-1.8c0.9,1.1,2.3,1.8,3.9,1.8c1.5,0,2.9-0.7,3.9-1.8c0.9,1.1,2.3,1.8,3.9,1.8c1.5,0,2.9-0.7,3.9-1.8
		c0.9,1.1,2.3,1.8,3.9,1.8s2.9-0.7,3.9-1.8c0.9,1.1,2.3,1.8,3.9,1.8s2.9-0.7,3.9-1.8c0.7,0.8,1.6,1.3,2.6,1.6v29.9H39.7V62.9h18.1
		v-7.7H19v7.7h18.1v19.4H16.5V52.4z M21.6,60.3v-2.6h33.5v2.6H21.6z M62.9,87.4h-49v-2.6h49V87.4z M87.4,82.3H62.9v-2.6h24.5V82.3z
		 M83.5,77.1H62.9V56.5h20.6V77.1z"/>
	<path id="XMLID_2256_" class="st0" d="M38.4,38.4c-7.8,0-14.2-6.4-14.2-14.2S30.6,10,38.4,10s14.2,6.4,14.2,14.2
		S46.2,38.4,38.4,38.4z"/>
	<path id="XMLID_2220_" class="st1" d="M31.9,29.4h1.8c1,2.3,3.3,3.9,5.9,3.9c3.6,0,6.5-2.9,6.5-6.5v-6.5H33.2v1.3h-1.3
		c-2.1,0-3.9,1.7-3.9,3.9S29.8,29.4,31.9,29.4z M35.8,22.9h7.7v3.9c0,2.1-1.7,3.9-3.9,3.9c-2.1,0-3.9-1.7-3.9-3.9V22.9z M31.9,24.2
		h1.3v2.6h-1.3c-0.7,0-1.3-0.6-1.3-1.3S31.2,24.2,31.9,24.2z"/>
	<path id="XMLID_2216_" class="st1" d="M37.1,15.2h2.6v2.6h-2.6V15.2z"/>
	<path id="XMLID_2215_" class="st1" d="M42.3,15.2h2.6v2.6h-2.6V15.2z"/>
	<path id="XMLID_2214_" class="st1" d="M31.9,15.2h2.6v2.6h-2.6V15.2z"/>
</g>
</svg>
