<?xml version="1.0" encoding="utf-8"?>
<!-- Generator: Adobe Illustrator 23.0.1, SVG Export Plug-In . SVG Version: 6.00 Build 0)  -->
<svg version="1.1" id="Layer_1" xmlns="http://www.w3.org/2000/svg" xmlns:xlink="http://www.w3.org/1999/xlink" x="0px" y="0px"
	 viewBox="0 0 100 100" style="enable-background:new 0 0 100 100;" xml:space="preserve">
<style type="text/css">
	.st0{fill:#232323;}
	.st1{fill:#FFFFFF;}
	.st2{fill:#F9BA48;}
	.st3{fill:none;}
</style>
<g>
	<g>
		<g>
			<path class="st0" d="M82.8,54.3c-0.8-3.6-2.2-6.1-4.3-8.1c-0.1-0.1-0.1-0.3-0.1-0.5c0-0.5,0-1,0-1.5c0-0.5,0-1,0-1.6
				c0-1.4-1-2.4-2.3-2.6c-0.1,0-0.3,0-0.5,0h0v0c0-0.2,0-0.4,0-0.6c0-0.5,0-1.1-0.1-1.6c0-1.2-0.1-2.4-0.3-3.6
				c-1.5-7.6-8-13-15.8-13c-2.1,0-4.3,0-6.4,0h-3.4c0-0.2,0-0.3,0-0.5c0-0.5,0-0.9,0-1.4c0.1-1.6-0.6-2.7-2-3.3l-9.2,0l-0.1,0
				c-1.5,0.5-2.2,1.6-2,3.2c0,0.3,0,0.5,0,0.8c0,0.2,0,0.4,0,0.5c0,0.8,0.5,1.3,1.2,1.4c0.7,0,1.2-0.5,1.3-1.3c0-0.3,0-0.6,0-1v-0.5
				c0-0.6,0-0.6,0.6-0.6c2.4,0,4.7,0,7.1,0c0.6,0,0.6,0,0.6,0.6c0,2.6,0,5.1,0,7.6c0,0.1,0,0.2,0,0.3h-8.3v-1c0-0.2,0-0.4,0-0.7
				c0-0.8-0.5-1.3-1.2-1.3c-0.3,0-0.6,0.1-0.8,0.3c-0.3,0.3-0.4,0.6-0.4,1.1v1.6h-2c-1.9,0-3,1-3,2.9l0,1.7c0,1.9,0,3.9,0,5.9
				c0,0.4-0.1,0.6-0.5,0.8c-8.5,4.7-13.2,11.8-14,21c-0.8,9.4,2.7,17.2,10.4,23.3c1.1,0.9,2.3,1.3,3.8,1.3h0c7.9,0,15.9,0,23.9,0
				c1.4,0,2.7-0.4,3.8-1.2c3.8-2.9,6.6-6.4,8.4-10.6c0.3-0.6,0.5-1.1,0.7-1.7c0.1-0.1,0.1-0.3,0.2-0.4c0.1,0.1,0.1,0.1,0.2,0.2
				c0.3,0.4,0.6,0.8,0.9,1.2c1.4,1.7,2.9,2.6,4.7,2.8c2.5,0.3,4.6-0.8,6.5-3.3c0.5-0.6,0.4-1.3-0.1-1.8s-1.3-0.3-1.8,0.3l-0.2,0.2
				c-0.3,0.3-0.6,0.7-0.9,1c-1.7,1.6-3.7,1.6-5.5,0.1c-1.1-0.9-1.9-2.2-2.6-3.9c-0.1-0.4-0.2-0.8-0.1-1.1c0.5-3.5,0.4-6.6-0.3-9.5
				c-0.3-1.3-0.2-2.6,0.4-4l0.1-0.2c0.2-0.4,0.3-0.8,0.5-1.1c0.8-1.5,1.6-2.4,2.6-3.1c1.5-1,3-1,4.4,0.1c0.8,0.6,1.5,1.4,2.1,2.3
				c1.8,2.9,2.6,6.3,2.4,10.3c-0.1,1.2-0.3,2.4-0.6,3.6c-0.1,0.5-0.2,0.9-0.3,1.4c-0.1,0.8,0.2,1.4,0.8,1.6c0.7,0.2,1.3-0.2,1.6-1
				c0,0,0-0.1,0-0.2l0-0.1C83.5,62,83.7,58.1,82.8,54.3z M44.1,29.6h3.1v6.2l-3.1-0.3V29.6z M38.4,29.6h3.2v5.9l-3.2,0.3V29.6z
				 M33.8,29.6c0.1-0.1,0.2-0.1,0.3-0.1c0,0,0.1,0,0.1,0c0.4,0,0.8,0,1.3,0c0.1,0,0.3,0,0.4,0l0,3c0,1.1,0,2.3,0,3.4
				c0,0.4-0.1,0.5-0.4,0.5c-0.5,0.1-1,0.3-1.5,0.5c-0.1,0-0.2,0.1-0.4,0.1c0-0.1,0-0.1,0-0.2v-2.1c0-1.6,0-3.1,0-4.7
				C33.7,29.9,33.7,29.7,33.8,29.6z M57.1,80.7c-0.7,0.5-1.5,0.8-2.4,0.8c-1.8,0-3.7,0-5.5,0H46l-3.2,0l-3.2,0c-2.9,0-5.8,0-8.8,0
				c-0.9,0-1.6-0.3-2.3-0.8c-6.7-5.2-9.9-12.1-9.5-20.3c0.5-11.3,8.8-20.4,20-22.3c12.3-2,24.1,5.8,26.8,17.8
				C68.1,65.9,65.2,74.2,57.1,80.7z M49.8,36.3v-6.8h0.4c0.6,0,1.1,0,1.6,0c0.1,0,0.2,0.2,0.2,0.3c0,2,0,4,0,6.1V37L49.8,36.3z
				 M70.1,42.7c0,0.5,0,1,0,1.5c0,0.5,0,1.1,0,1.6c0,0.2-0.1,0.4-0.2,0.4c-1.3,1.1-2.3,2.6-3.2,4.6c0,0,0,0,0,0
				c-2.6-5.5-6.6-9.7-11.9-12.4c-0.3-0.1-0.4-0.3-0.4-0.6c0-2.2,0-4.4,0-6.6l0-0.9c0-2-1-3.1-3.1-3.1h-1.9v-3.5c0.1,0,0.2,0,0.3,0
				l2.8,0c2.3,0,4.6,0,6.9,0C67,23.7,72.9,29.7,73,37.2V40l-0.1,0c-0.2,0-0.4,0-0.6,0.1C71,40.3,70.2,41.4,70.1,42.7z M75.8,44.7
				h-3.2c0-0.1,0-0.2,0-0.3c0-0.5,0-1,0-1.6c0-0.1,0.2-0.3,0.3-0.3c0.6,0,1.3,0,1.9,0c0.2,0,0.4,0,0.7,0c0.1,0,0.2,0,0.3,0.1
				c0,0,0.1,0.1,0.1,0.2V44.7z"/>
			<path class="st1" d="M52,35.9V37l-2.2-0.7v-6.8h0.4c0.6,0,1.1,0,1.6,0c0.1,0,0.2,0.2,0.2,0.3C52,31.8,52,33.8,52,35.9z"/>
			<path class="st1" d="M35.9,36c0,0.4-0.1,0.5-0.4,0.5c-0.5,0.1-1,0.3-1.5,0.5c-0.1,0-0.2,0.1-0.4,0.1c0-0.1,0-0.1,0-0.2v-2.1
				c0-1.6,0-3.1,0-4.7c0-0.2,0-0.4,0.1-0.5c0.1-0.1,0.2-0.1,0.3-0.1c0,0,0.1,0,0.1,0c0.4,0,0.8,0,1.3,0c0.1,0,0.3,0,0.4,0l0,3
				C35.9,33.7,35.9,34.8,35.9,36z"/>
			<path class="st1" d="M65.9,56c-2.7-12-14.5-19.8-26.8-17.8c-11.3,1.8-19.5,11-20,22.3c-0.4,8.2,2.8,15.1,9.5,20.3
				c0.7,0.5,1.4,0.8,2.3,0.8c2.9,0,5.8,0,8.8,0l3.2,0l3.2,0h3.2c1.9,0,3.7,0,5.5,0c0.9,0,1.7-0.3,2.4-0.8
				C65.2,74.2,68.1,65.9,65.9,56z M63.5,69.3c-1.4,3.7-3.7,6.9-6.8,9.5c-0.7,0.5-1.4,0.8-2.2,0.8c-2.9,0-5.8,0-8.6,0l-3,0l-3.1,0
				c-2.8,0-5.6,0-8.4,0h0c-0.9,0-1.7-0.3-2.4-0.9c-7.1-5.8-9.9-15.2-7-23.9c0.5-1.5,1.4-2.1,2.9-2.1l22.7,0c0.2,0,0.3,0,0.5,0
				c0.7,0.1,1.1,0.5,1.1,1.2c0,0,0,0.1,0,0.1h2.2c0-0.2,0-0.4,0.1-0.6c0.2-0.4,0.6-0.7,1.1-0.7c2.8,0,6,0,9,0c1.1,0,1.9,0.7,2.3,1.9
				C65.4,59.6,65.3,64.5,63.5,69.3z"/>
			<path class="st0" d="M29.8,21.6C28,21,26.9,19.8,26.3,18c-0.2-0.6-0.7-0.9-1.4-1h0c-0.7,0.1-1.2,0.4-1.4,1
				c-0.6,1.7-1.7,2.9-3.4,3.6c-0.6,0.2-1,0.7-1,1.4c0,0.6,0.3,1.1,0.9,1.4c1.7,0.7,2.9,1.9,3.5,3.6c0.2,0.6,0.7,1,1.4,1c0,0,0,0,0,0
				c0.7,0,1.2-0.3,1.4-0.9c0.6-1.8,1.8-3,3.5-3.6c0.6-0.2,0.9-0.7,0.9-1.4C30.7,22.3,30.4,21.9,29.8,21.6z M24.9,24.7L23.2,23
				l1.7-1.6l1.7,1.7L24.9,24.7z"/>
			<polygon class="st2" points="26.6,23 24.9,24.7 23.2,23 24.9,21.4 			"/>
			<g>
				<path class="st0" d="M41.4,22c0.6,0,1,0.4,1,1c0,0.6-0.4,1-1,1c-0.5,0-1-0.4-1-1C40.4,22.5,40.9,22,41.4,22z"/>
				<path class="st0" d="M41.4,24.2C41.4,24.2,41.4,24.2,41.4,24.2c-0.6,0-1.2-0.5-1.2-1.2c0-0.3,0.1-0.6,0.3-0.9
					c0.2-0.2,0.5-0.4,0.9-0.4l0,0c0.3,0,0.7,0.1,0.9,0.3c0.2,0.2,0.4,0.5,0.4,0.9c0,0.3-0.1,0.7-0.4,0.9
					C42.1,24.1,41.8,24.2,41.4,24.2z M41.4,22.3c-0.2,0-0.4,0.1-0.5,0.2c-0.1,0.1-0.2,0.3-0.2,0.5c0,0.4,0.4,0.7,0.7,0.7
					c0,0,0,0,0,0c0.2,0,0.4-0.1,0.5-0.2c0.1-0.1,0.2-0.3,0.2-0.6c0-0.2-0.1-0.4-0.2-0.5C41.8,22.3,41.6,22.3,41.4,22.3L41.4,22.3z"
					/>
			</g>
			<path class="st0" d="M63.5,69.3c-1.4,3.7-3.7,6.9-6.8,9.5c-0.7,0.5-1.4,0.8-2.2,0.8c-2.9,0-5.8,0-8.6,0l-3,0l-3.1,0
				c-2.8,0-5.6,0-8.4,0h0c-0.9,0-1.7-0.3-2.4-0.9c-7.1-5.8-9.9-15.2-7-23.9c0.5-1.5,1.4-2.1,2.9-2.1l22.7,0c0.2,0,0.3,0,0.5,0
				c0.7,0.1,1.1,0.5,1.1,1.2c0,0,0,0.1,0,0.1c0,0.6-0.4,1-1.1,1.1c-0.2,0-0.4,0-0.5,0h-4.6c-5.9,0-11.8,0-17.7,0
				c-0.5,0-0.7,0.1-0.9,0.7c-2.4,7.6,0.2,16,6.4,21c0.2,0.2,0.5,0.3,0.7,0.3c7.6,0,15.3,0,23.1,0c0.3,0,0.5-0.1,0.7-0.3
				c6.2-5,8.8-13.4,6.4-21c-0.2-0.5-0.4-0.7-0.9-0.7c-2.7,0-5.3,0-8,0c-0.4,0-1-0.3-1.2-0.6c-0.1-0.1-0.2-0.3-0.2-0.5
				c0-0.2,0-0.4,0.1-0.6c0.2-0.4,0.6-0.7,1.1-0.7c2.8,0,6,0,9,0c1.1,0,1.9,0.7,2.3,1.9C65.4,59.6,65.3,64.5,63.5,69.3z"/>
		</g>
	</g>
	<path class="st2" d="M55.1,76.9c-0.2,0.1-0.5,0.3-0.7,0.3c-7.8,0-15.6,0-23.1,0c-0.2,0-0.5-0.1-0.7-0.3c-6.2-5-8.8-13.4-6.4-21
		c0.2-0.5,0.4-0.6,0.9-0.7c5.9,0,11.8,0,17.7,0h4.6c0.2,0,0.3,0,0.5,0c0.6-0.1,1-0.5,1.1-1.1h2.2c0,0.2,0.1,0.4,0.2,0.5
		c0.3,0.3,0.8,0.6,1.2,0.6c2.6,0,5.3,0,8,0c0.6,0,0.8,0.1,0.9,0.7C63.9,63.5,61.3,72,55.1,76.9z"/>
	<line class="st3" x1="55.5" y1="54.1" x2="51.2" y2="54.1"/>
	<line class="st3" x1="49" y1="54.1" x2="45.7" y2="54.1"/>
</g>
</svg>
