<?xml version="1.0" encoding="utf-8"?>
<!-- Generator: Adobe Illustrator 23.0.1, SVG Export Plug-In . SVG Version: 6.00 Build 0)  -->
<svg version="1.1" id="Layer_1" xmlns="http://www.w3.org/2000/svg" xmlns:xlink="http://www.w3.org/1999/xlink" x="0px" y="0px"
	 viewBox="0 0 100 100" style="enable-background:new 0 0 100 100;" xml:space="preserve">
<style type="text/css">
	.st0{fill:#232323;}
	.st1{fill:#F9BA48;}
</style>
<g id="XMLID_1049_">
	<g id="XMLID_1057_">
		<path id="XMLID_2698_" class="st0" d="M83,78.8c0,0.8-0.6,1.4-1.4,1.4H11.5c-0.8,0-1.4-0.6-1.4-1.4V39H83v17.9h2.7V29.4
			c0-2.3-1.8-4.1-4.1-4.1h-5.5v-4.1c0-2.3-1.8-4.1-4.1-4.1c-2.3,0-4.1,1.8-4.1,4.1v4.1H25.3v-4.1c0-2.3-1.8-4.1-4.1-4.1
			S17,18.9,17,21.2v4.1h-5.5c-2.3,0-4.1,1.8-4.1,4.1v49.5c0,2.3,1.8,4.1,4.1,4.1h70.1c2.3,0,4.1-1.8,4.1-4.1v-2.7H83L83,78.8
			L83,78.8L83,78.8z M70.6,21.2c0-0.8,0.6-1.4,1.4-1.4s1.4,0.6,1.4,1.4v5.5c0,0.8-0.6,1.4-1.4,1.4s-1.4-0.6-1.4-1.4L70.6,21.2
			L70.6,21.2z M19.8,21.2c0-0.8,0.6-1.4,1.4-1.4c0.8,0,1.4,0.6,1.4,1.4v5.5c0,0.8-0.6,1.4-1.4,1.4c-0.8,0-1.4-0.6-1.4-1.4V21.2z
			 M11.5,28h5.7c0.6,1.6,2.1,2.7,3.9,2.7c1.8,0,3.3-1.2,3.9-2.7h43.1c0.6,1.6,2.1,2.7,3.9,2.7s3.3-1.2,3.9-2.7h5.7
			c0.8,0,1.4,0.6,1.4,1.4v6.9H10.2v-6.9C10.2,28.6,10.8,28,11.5,28z"/>
		<path id="XMLID_2334_" class="st1" d="M80.9,77.5c-6.4,0-11.7-5.2-11.7-11.7s5.2-11.7,11.7-11.7c6.4,0,11.7,5.2,11.7,11.7
			C92.6,72.2,87.3,77.5,80.9,77.5z"/>
		<path id="XMLID_2332_" class="st0" d="M74.2,66.1L74.2,66.1c-0.4,0.6-0.3,1.5,0.4,1.9l4.6,3l12.3-15c0.5-0.6,0.4-1.5-0.2-1.9h0
			c-0.6-0.5-1.5-0.4-1.9,0.2L78.6,67.4l-2.5-1.7C75.5,65.3,74.6,65.5,74.2,66.1z"/>
		<path id="XMLID_2677_" class="st0" d="M23.9,43.1h-9.6v8.2h9.6V43.1z M21.2,48.6H17v-2.7h4.1L21.2,48.6L21.2,48.6z"/>
		<path id="XMLID_2664_" class="st0" d="M37.6,43.1H28v8.2h9.6L37.6,43.1L37.6,43.1z M34.9,48.6h-4.1v-2.7h4.1V48.6z"/>
		<path id="XMLID_2656_" class="st0" d="M51.4,43.1h-9.6v8.2h9.6V43.1z M48.6,48.6h-4.1v-2.7h4.1V48.6z"/>
		<path id="XMLID_2648_" class="st0" d="M65.1,43.1h-9.6v8.2h9.6V43.1z M62.4,48.6h-4.1v-2.7h4.1V48.6z"/>
		<path id="XMLID_2636_" class="st0" d="M78.8,43.1h-9.6v8.2h9.6V43.1z M76.1,48.6H72v-2.7h4.1V48.6z"/>
		<path id="XMLID_2626_" class="st0" d="M23.9,55.5h-9.6v8.2h9.6V55.5z M21.2,61H17v-2.7h4.1L21.2,61L21.2,61z"/>
		<path id="XMLID_2614_" class="st0" d="M37.6,55.5H28v8.2h9.6L37.6,55.5L37.6,55.5z M34.9,61h-4.1v-2.7h4.1V61z"/>
		<path id="XMLID_2606_" class="st0" d="M51.4,55.5h-9.6v8.2h9.6V55.5z M48.6,61h-4.1v-2.7h4.1V61z"/>
		<path id="XMLID_2587_" class="st0" d="M65.1,55.5h-9.6v8.2h9.6V55.5z M62.4,61h-4.1v-2.7h4.1V61z"/>
		<path id="XMLID_2573_" class="st0" d="M14.3,76.1h9.6v-8.2h-9.6V76.1z M17,70.6h4.1v2.7H17V70.6z"/>
		<path id="XMLID_2553_" class="st0" d="M28,76.1h9.6v-8.2H28V76.1z M30.8,70.6h4.1v2.7h-4.1V70.6z"/>
		<path id="XMLID_2478_" class="st0" d="M41.8,76.1h9.6v-8.2h-9.6L41.8,76.1L41.8,76.1z M44.5,70.6h4.1v2.7h-4.1V70.6z"/>
		<path id="XMLID_1073_" class="st0" d="M55.5,76.1h9.6v-8.2h-9.6V76.1z M58.2,70.6h4.1v2.7h-4.1L58.2,70.6L58.2,70.6z"/>
	</g>
	<rect id="XMLID_108_" x="30.8" y="58.2" class="st1" width="4.1" height="2.7"/>
</g>
</svg>
