<?xml version="1.0" encoding="utf-8"?>
<!-- Generator: Adobe Illustrator 23.0.1, SVG Export Plug-In . SVG Version: 6.00 Build 0)  -->
<svg version="1.1" id="Layer_1" xmlns="http://www.w3.org/2000/svg" xmlns:xlink="http://www.w3.org/1999/xlink" x="0px" y="0px"
	 viewBox="0 0 77.3 62.2" style="enable-background:new 0 0 77.3 62.2;" xml:space="preserve">
<style type="text/css">
	.st0{fill:#F9BA48;}
</style>
<g id="XMLID_6_">
	<g>
		<path id="XMLID_24_" class="st0" d="M26.7,0l4.2,5.9c-6.2,4.6-10.8,9.2-13.7,13.7c-3,4.5-4.4,9-4.4,13.7v1.5
			c1.1-0.1,2-0.3,2.9-0.4c0.9-0.1,1.7-0.2,2.5-0.2c3.8,0,6.9,1.2,9.4,3.7c2.5,2.5,3.7,5.6,3.7,9.3c0,4.6-1.3,8.2-4,10.9
			c-2.6,2.7-6.1,4.1-10.5,4.1c-4.9,0-9-1.9-12.1-5.7C1.6,52.8,0,47.9,0,42c0-8.1,2.2-15.7,6.7-22.8C11.2,12.2,17.9,5.8,26.7,0z
			 M72.9,0l4.2,5.9c-6.2,4.6-10.8,9.2-13.7,13.7c-3,4.5-4.4,9-4.4,13.7v1.5c1-0.1,1.9-0.3,2.8-0.4c0.9-0.1,1.8-0.2,2.6-0.2
			c3.8,0,7,1.2,9.4,3.7c2.4,2.5,3.6,5.6,3.6,9.4c0,4.6-1.3,8.2-3.8,10.9c-2.6,2.7-6,4.1-10.4,4.1c-4.9,0-9-1.9-12.2-5.7
			C47.6,52.8,46,47.9,46,42c0-7.9,2.3-15.4,6.8-22.5C57.3,12.4,64,5.9,72.9,0z"/>
	</g>
</g>
</svg>
