<?xml version="1.0" encoding="utf-8"?>
<!-- Generator: Adobe Illustrator 23.0.1, SVG Export Plug-In . SVG Version: 6.00 Build 0)  -->
<svg version="1.1" id="Layer_1" xmlns="http://www.w3.org/2000/svg" xmlns:xlink="http://www.w3.org/1999/xlink" x="0px" y="0px"
	 viewBox="0 0 135 19" style="enable-background:new 0 0 135 19;" xml:space="preserve">
<style type="text/css">
	.st0{fill:#232323;}
	.st1{fill:#FFCF53;}
	.st2{fill:#473A34;}
	.st3{fill:none;stroke:#FFFFFF;stroke-miterlimit:10;}
</style>
<g id="XMLID_2_">
	<g>
		<path class="st0" d="M25.8,3H28l1.7,11.4L31.4,3h2.2l-2.1,13.9H28L25.8,3z"/>
		<path class="st0" d="M35,16.9V3h2.2v13.9H35z"/>
		<path class="st0" d="M39.4,16.9V3h2.2v6.1L44.5,3h2.2l-3,6.2l3,7.7h-2.2l-2.1-5.6l-0.7,1.3v4.3H39.4z"/>
		<path class="st0" d="M48.2,16.9V3h3.3c1.1,0,1.9,0.3,2.5,0.8c0.5,0.5,0.8,1.3,0.8,2.4v1.1c0,1.4-0.5,2.4-1.4,2.8
			c1,0.4,1.5,1.4,1.5,3v2.1c0,0,0,0.1,0,0.1c0,0.7,0.1,1.2,0.2,1.6h-2.2c-0.1-0.4-0.2-1-0.2-1.7V13c0-0.6-0.1-1.1-0.3-1.4
			c-0.2-0.3-0.6-0.4-1.1-0.4h-0.8v5.7H48.2z M50.4,9.3h0.9c0.4,0,0.8-0.1,1-0.3c0.2-0.2,0.3-0.6,0.3-1.1V6.4c0-1-0.4-1.4-1.1-1.4
			h-1.1V9.3z"/>
		<path class="st0" d="M56.3,16.9L58.5,3h3.4l2.2,13.9h-2.2l-0.4-2.4h-2.7l-0.4,2.4H56.3z M59.1,12.5h2.1l-1.1-7L59.1,12.5z"/>
		<path class="st0" d="M65.5,16.9V3h3l1.6,9.9L71.7,3h3.2v13.9h-2.2v-10l-1.5,10h-2.1l-1.6-9.8v9.8H65.5z"/>
		<path class="st0" d="M80.2,13.6v-0.9h2.2v1c0,0.9,0.4,1.4,1.1,1.4h0c0.7,0,1-0.5,1-1.4c0-0.5-0.2-1-0.5-1.5s-0.7-0.9-1.1-1.2
			l-1.1-1.2c-0.5-0.4-0.9-0.9-1.2-1.5c-0.3-0.6-0.5-1.3-0.5-2c0-1.1,0.3-2,0.9-2.6c0.6-0.6,1.4-0.9,2.4-0.9c1,0,1.8,0.3,2.3,0.9
			s0.8,1.5,0.8,2.6v0.4h-2.1V6.2c0-0.9-0.4-1.4-1.1-1.4c-0.7,0-1.1,0.5-1.1,1.4c0,0.4,0.1,0.7,0.2,1.1c0.2,0.3,0.4,0.7,0.6,0.9
			c0.3,0.3,0.5,0.6,0.8,0.8c0.3,0.3,0.6,0.6,0.9,0.9c0.3,0.3,0.6,0.6,0.8,1s0.5,0.7,0.6,1.2c0.2,0.5,0.2,1,0.2,1.5
			c0,1.1-0.3,2-0.8,2.6s-1.3,0.9-2.4,0.9s-1.8-0.3-2.4-0.9S80.2,14.7,80.2,13.6z"/>
		<path class="st0" d="M88.4,13.6V6.3c0-1.1,0.3-2,0.9-2.6c0.6-0.6,1.4-0.9,2.5-0.9s1.9,0.3,2.5,0.9c0.6,0.6,0.9,1.5,0.9,2.6v7.3
			c0,1.1-0.3,2-0.9,2.6s-1.4,0.9-2.5,0.9s-1.9-0.3-2.5-0.9S88.4,14.7,88.4,13.6z M90.6,13.7c0,0.9,0.4,1.4,1.1,1.4
			c0.8,0,1.1-0.5,1.1-1.4V6.2c0-0.9-0.4-1.4-1.1-1.4s-1.1,0.5-1.1,1.4V13.7z"/>
		<path class="st0" d="M97.1,16.9V3h2.2v12h3.6v2H97.1z"/>
		<path class="st0" d="M103.9,16.9L106.1,3h3.4l2.2,13.9h-2.2l-0.4-2.4h-2.7l-0.4,2.4H103.9z M106.7,12.5h2.1l-1.1-7L106.7,12.5z"/>
		<path class="st0" d="M113.1,16.9V3h3l2.2,8.4V3h2v13.9H118l-2.7-10.1v10.1H113.1z"/>
		<path class="st0" d="M122.3,16.9V3h2.2v6.1l2.9-6.1h2.2l-3,6.2l3,7.7h-2.2l-2.1-5.6l-0.7,1.3v4.3H122.3z"/>
		<path class="st0" d="M131.1,16.9V3h2.2v13.9H131.1z"/>
	</g>
	<g id="XMLID_30_">
		<polygon id="XMLID_36_" class="st1" points="0.3,3.7 5.8,3.7 10.8,12.3 8.1,16.9 		"/>
		<circle id="XMLID_33_" class="st2" cx="13.8" cy="4.9" r="1.2"/>
		<path id="XMLID_32_" class="st3" d="M8.1,16.9"/>
	</g>
</g>
</svg>
